/* XPM */
static char * collectibleeeeee_xpm[] = {
"64 64 79 1",
" 	c None",
".	c #849141",
"+	c #A19C83",
"@	c #A19C84",
"#	c #A09B83",
"$	c #938F78",
"%	c #77765C",
"&	c #636B42",
"*	c #647436",
"=	c #6F8036",
"-	c #7D8C3D",
";	c #918C77",
">	c #959476",
",	c #7D8656",
"'	c #6B7C3A",
")	c #677A33",
"!	c #7D8B3D",
"~	c #8F8A75",
"{	c #928D78",
"]	c #8E9369",
"^	c #7C8C4D",
"/	c #718636",
"(	c #6F8235",
"_	c #758539",
":	c #7F8D3E",
"<	c #88826F",
"[	c #736D5E",
"}	c #7D8C4D",
"|	c #768A3F",
"1	c #758938",
"2	c #7A8B3B",
"3	c #829040",
"4	c #7C8656",
"5	c #7B7665",
"6	c #5E6046",
"7	c #646C42",
"8	c #6D7F3B",
"9	c #738838",
"0	c #768A39",
"a	c #7B8C3C",
"b	c #818F3F",
"c	c #6C7E3A",
"d	c #75745C",
"e	c #637138",
"f	c #667737",
"g	c #6E8236",
"h	c #758A38",
"i	c #7C8D3C",
"j	c #839141",
"k	c #6D8235",
"l	c #787F55",
"m	c #718337",
"n	c #758839",
"o	c #758838",
"p	c #78844E",
"q	c #7E8C3D",
"r	c #7F8E3E",
"s	c #839140",
"t	c #808F3F",
"u	c #808D3E",
"v	c #7B8846",
"w	c #F5FBD8",
"x	c #AE9B96",
"y	c #FBB635",
"z	c #FBDE8D",
"A	c #F6FF96",
"B	c #FBF050",
"C	c #B94C2B",
"D	c #B47C1D",
"E	c #DBAE30",
"F	c #6D8236",
"G	c #6D7A3B",
"H	c #6A6F45",
"I	c #7D8557",
"J	c #787858",
"K	c #8F8E6D",
"L	c #999876",
"M	c #A19B84",
"N	c #9A9977",
"+@#$%&*=-..............................................-=*&%$@@;",
"###>,')=!..............................................!=)',>@#~",
"{$>]^/(_:..............................................:_(/^]>$<",
"[%,}|12:3..............................................3:21|}4%5",
"67890ab..................................................ba09c7d",
"efghibj..................................................jbihkfl",
"=mnab......................................................baomp",
"-qrbs......................................................s3tuv",
"................................................................",
"................................................................",
"................................................................",
"................................................................",
"................................................................",
"................................................................",
"................................................................",
"................................................................",
".............wwww.....................wwww......................",
"............xwwwwww..................xwwwwww....................",
"............xwwwwwyyy................xwwwwwyyy..................",
"............xwwwyzyzzyy..............xwwwyzyzzyy................",
"............xxwyyyyzzAAB.............xxwyyyyzzAAB...............",
".............xwyyyyBBAABB.............xwyyyyBBAABB..............",
".............xCyyyBBBBBDDD............xCyyyBBBBBDDD.............",
"..............CyyBBBBDDDDD.............CyyBBBBDDDDD.............",
"..............CCyBBBDDDDDD.............CCyBBBDDDDDD.............",
"...............CEBBDDDDDDD..............CEBBDDDDDDD.............",
"...............CEEEDDDDDD...............CEEEDDDDDD..............",
"................EEDDDDDD.................EEDDDDDD...............",
".................EDDDDD...................EDDDDD................",
"..................DDDD.....................DDDD.................",
"................................................................",
"................................................................",
"................................................................",
"................................................................",
"................................................................",
"................................................................",
"................................................................",
"................................................................",
"................................................................",
"................................................................",
"..........................wwww..................................",
".........................xwwwwww................................",
".........................xwwwwwyyy..............................",
".........................xwwwyzyzzyy............................",
".........................xxwyyyyzzAAB...........................",
"..........................xwyyyyBBAABB..........................",
"..........................xCyyyBBBBBDDD.........................",
"...........................CyyBBBBDDDDD.........................",
"...........................CCyBBBDDDDDD.........................",
"............................CEBBDDDDDDD.........................",
"............................CEEEDDDDDD..........................",
".............................EEDDDDDD...........................",
"..............................EDDDDD............................",
"...............................DDDD.............................",
"................................................................"
"................................................................",
"-qrbs......................................................sbrq:",
"=mnab......................................................banm_",
"efghibj..................................................jbihFfG",
"67890ab..................................................ba0987H",
"[%,}|12:3..............................................3:21|}I%J",
"{$>]^/(_:..............................................:_(/^]>$K",
"###>,')=!..............................................!=)',>##L",
"+@#$%&*=-..............................................-=*&%$M@N",};
