/* XPM */
static char * floor_xpm[] = {
"64 64 80 1",
" 	c None",
".	c #A19C83",
"+	c #A19C84",
"@	c #A09B83",
"#	c #938F78",
"$	c #77765C",
"%	c #636B42",
"&	c #647436",
"*	c #6F8036",
"=	c #7D8C3D",
"-	c #849141",
";	c #918C77",
">	c #959476",
",	c #7D8656",
"'	c #6B7C3A",
")	c #677A33",
"!	c #7D8B3D",
"~	c #8F8A75",
"{	c #928D78",
"]	c #8E9369",
"^	c #7C8C4D",
"/	c #718636",
"(	c #6F8235",
"_	c #758539",
":	c #7F8D3E",
"<	c #88826F",
"[	c #736D5E",
"}	c #7D8C4D",
"|	c #768A3F",
"1	c #758938",
"2	c #7A8B3B",
"3	c #829040",
"4	c #7C8656",
"5	c #7B7665",
"6	c #5E6046",
"7	c #646C42",
"8	c #6D7F3B",
"9	c #738838",
"0	c #768A39",
"a	c #7B8C3C",
"b	c #818F3F",
"c	c #6C7E3A",
"d	c #75745C",
"e	c #637138",
"f	c #667737",
"g	c #6E8236",
"h	c #758A38",
"i	c #7C8D3C",
"j	c #839141",
"k	c #6D8235",
"l	c #787F55",
"m	c #718337",
"n	c #758839",
"o	c #758838",
"p	c #78844E",
"q	c #7E8C3D",
"r	c #7F8E3E",
"s	c #839140",
"t	c #778448",
"u	c #768444",
"v	c #859241",
"w	c #778444",
"x	c #7A8444",
"y	c #7B8444",
"z	c #80884A",
"A	c #849140",
"B	c #889054",
"C	c #8C9458",
"D	c #80894A",
"E	c #7B8642",
"F	c #7C893F",
"G	c #6D8236",
"H	c #6D7A3B",
"I	c #6A6F45",
"J	c #7D8557",
"K	c #787858",
"L	c #8F8E6D",
"M	c #999876",
"N	c #A19B84",
"O	c #9A9977",
".+@#$%&*=----------------------------------------------=*&%$#++;",
"@@@>,')*!----------------------------------------------!*)',>+@~",
"{#>]^/(_:----------------------------------------------:_(/^]>#<",
"[$,}|12:3----------------------------------------------3:21|}4$5",
"67890ab--------------------------------------------------ba09c7d",
"efghibj--------------------------------------------------jbihkfl",
"*mnab------------------------------------------------------baomp",
"=qrbs------------------------------------------------------sbrqt",
"----------------------------------------------------------------",
"---------------------------------------------------------------u",
"-------------------------------------------------------------v-u",
"---------------------------------------------------------------w",
"---------------------------------------------------------------x",
"---------------------------------------------------------------y",
"---------------------------------------------------------------y",
"---------------------------------------------------------------z",
"-------------------------------------------------------------A-B",
"-------------------------------------------------------------A-C",
"-------------------------------------------------------------A-C",
"-------------------------------------------------------------A-B",
"---------------------------------------------------------------D",
"---------------------------------------------------------------y",
"---------------------------------------------------------------y",
"---------------------------------------------------------------D",
"-------------------------------------------------------------A-B",
"-------------------------------------------------------------A-C",
"-------------------------------------------------------------A-C",
"-------------------------------------------------------------A-B",
"---------------------------------------------------------------D",
"---------------------------------------------------------------y",
"---------------------------------------------------------------y",
"---------------------------------------------------------------z",
"-------------------------------------------------------------A-B",
"-------------------------------------------------------------A-C",
"-------------------------------------------------------------A-C",
"-------------------------------------------------------------A-B",
"---------------------------------------------------------------z",
"---------------------------------------------------------------E",
"---------------------------------------------------------------F",
"---------------------------------------------------------------:",
"---------------------------------------------------------------3",
"----------------------------------------------------------------",
"----------------------------------------------------------------",
"----------------------------------------------------------------",
"----------------------------------------------------------------",
"----------------------------------------------------------------",
"----------------------------------------------------------------",
"----------------------------------------------------------------",
"----------------------------------------------------------------",
"----------------------------------------------------------------",
"----------------------------------------------------------------",
"----------------------------------------------------------------",
"----------------------------------------------------------------",
"----------------------------------------------------------------",
"----------------------------------------------------------------",
"----------------------------------------------------------------",
"=qrbs------------------------------------------------------sbrq:",
"*mnab------------------------------------------------------banm_",
"efghibj--------------------------------------------------jbihGfH",
"67890ab--------------------------------------------------ba0987I",
"[$,}|12:3----------------------------------------------3:21|}J$K",
"{#>]^/(_:----------------------------------------------:_(/^]>#L",
"@@@>,')*!----------------------------------------------!*)',>@@M",
".+@#$%&*=----------------------------------------------=*&%$#N+O"};
