/* XPM */
static char * perso_xpm[] = {
"64 64 665 2",
"  	c None",
". 	c #A19C83",
"+ 	c #A19C84",
"@ 	c #A09B83",
"# 	c #938F78",
"$ 	c #77765C",
"% 	c #636B42",
"& 	c #647436",
"* 	c #6F8036",
"= 	c #7D8C3D",
"- 	c #849141",
"; 	c #918C77",
"> 	c #959476",
", 	c #7D8656",
"' 	c #6B7C3A",
") 	c #677A33",
"! 	c #7D8B3D",
"~ 	c #8F8A75",
"{ 	c #928D78",
"] 	c #8E9369",
"^ 	c #7C8C4D",
"/ 	c #718636",
"( 	c #6F8235",
"_ 	c #758539",
": 	c #7F8D3E",
"< 	c #88826F",
"[ 	c #736D5E",
"} 	c #7D8C4D",
"| 	c #768A3F",
"1 	c #758938",
"2 	c #7A8B3B",
"3 	c #829040",
"4 	c #7C8656",
"5 	c #7B7665",
"6 	c #5E6046",
"7 	c #646C42",
"8 	c #6D7F3B",
"9 	c #738838",
"0 	c #768A39",
"a 	c #7B8C3C",
"b 	c #818F3F",
"c 	c #6C7E3A",
"d 	c #75745C",
"e 	c #637138",
"f 	c #667737",
"g 	c #6E8236",
"h 	c #758A38",
"i 	c #7C8D3C",
"j 	c #839141",
"k 	c #6D8235",
"l 	c #787F55",
"m 	c #718337",
"n 	c #758839",
"o 	c #758838",
"p 	c #78844E",
"q 	c #7E8C3D",
"r 	c #7F8E3E",
"s 	c #839140",
"t 	c #859243",
"u 	c #869245",
"v 	c #849143",
"w 	c #859244",
"x 	c #859247",
"y 	c #778448",
"z 	c #88944C",
"A 	c #869348",
"B 	c #87944A",
"C 	c #869347",
"D 	c #869349",
"E 	c #86934A",
"F 	c #86934D",
"G 	c #768444",
"H 	c #8B9753",
"I 	c #FEFEFE",
"J 	c #FFFFFF",
"K 	c #FEFEFF",
"L 	c #FCFCFC",
"M 	c #C1CCDB",
"N 	c #C1CCDC",
"O 	c #C0CBDC",
"P 	c #C0CBDB",
"Q 	c #859241",
"R 	c #C2CDDD",
"S 	c #C1CCDD",
"T 	c #87944E",
"U 	c #869249",
"V 	c #778444",
"W 	c #FDFEFE",
"X 	c #BFCADA",
"Y 	c #BEC9D9",
"Z 	c #7A8444",
"` 	c #89964F",
" .	c #BFCADB",
"..	c #7B8444",
"+.	c #FEFEFD",
"@.	c #C2CDDE",
"#.	c #859246",
"$.	c #80884A",
"%.	c #FDFDFC",
"&.	c #849140",
"*.	c #889054",
"=.	c #89954D",
"-.	c #8C9458",
";.	c #849144",
">.	c #FDFDFD",
",.	c #C2CCDD",
"'.	c #BEC9DA",
").	c #849142",
"!.	c #80894A",
"~.	c #28232C",
"{.	c #160C1D",
"].	c #0C0418",
"^.	c #1A0D20",
"/.	c #312C33",
"(.	c #BCC7D7",
"_.	c #272933",
":.	c #2D2A36",
"<.	c #231E2C",
"[.	c #2B2A33",
"}.	c #241B2A",
"|.	c #100417",
"1.	c #0A0216",
"2.	c #100217",
"3.	c #1F1823",
"4.	c #F8F8F8",
"5.	c #BBC6D6",
"6.	c #0A0519",
"7.	c #201B29",
"8.	c #1D1B26",
"9.	c #39353B",
"0.	c #160D1D",
"a.	c #1D1823",
"b.	c #0F081A",
"c.	c #0A0217",
"d.	c #0D0218",
"e.	c #130A1B",
"f.	c #150D1B",
"g.	c #251F2A",
"h.	c #FAFAFA",
"i.	c #15101F",
"j.	c #140E1E",
"k.	c #140B1D",
"l.	c #241428",
"m.	c #1D0921",
"n.	c #2B2227",
"o.	c #373628",
"p.	c #849041",
"q.	c #231829",
"r.	c #160E1E",
"s.	c #0E0216",
"t.	c #180B1F",
"u.	c #0A0317",
"v.	c #0E0519",
"w.	c #10051A",
"x.	c #110115",
"y.	c #160B1D",
"z.	c #C0CADB",
"A.	c #130C1D",
"B.	c #0F0519",
"C.	c #160B1F",
"D.	c #241528",
"E.	c #221426",
"F.	c #2D2428",
"G.	c #231D22",
"H.	c #839041",
"I.	c #251E2B",
"J.	c #15081C",
"K.	c #050214",
"L.	c #0D0419",
"M.	c #090317",
"N.	c #0A0318",
"O.	c #0C0318",
"P.	c #14081C",
"Q.	c #C1CBDC",
"R.	c #12091C",
"S.	c #170B1F",
"T.	c #180D20",
"U.	c #332C2D",
"V.	c #231E22",
"W.	c #353239",
"X.	c #150C1C",
"Y.	c #130F1E",
"Z.	c #080317",
"`.	c #12071B",
" +	c #180C1F",
".+	c #221827",
"++	c #1C1123",
"@+	c #27202C",
"#+	c #FDFDFE",
"$+	c #1B1524",
"%+	c #0F061A",
"&+	c #13081D",
"*+	c #150B1D",
"=+	c #231326",
"-+	c #383030",
";+	c #2E2C25",
">+	c #FBFCFC",
",+	c #1E1C26",
"'+	c #070317",
")+	c #060116",
"!+	c #070216",
"~+	c #060214",
"{+	c #F5F5F5",
"]+	c #BFC9DA",
"^+	c #BDC8D9",
"/+	c #BAC5D5",
"(+	c #13121F",
"_+	c #1B0520",
":+	c #322E2B",
"<+	c #FBEAEA",
"[+	c #F6CACC",
"}+	c #F3C3C3",
"|+	c #7E4D52",
"1+	c #7E4348",
"2+	c #5E3037",
"3+	c #090616",
"4+	c #151122",
"5+	c #140A1E",
"6+	c #401D37",
"7+	c #6E415A",
"8+	c #A490A7",
"9+	c #859245",
"0+	c #F8D0D2",
"a+	c #F5BCBE",
"b+	c #F2A0A3",
"c+	c #EF9598",
"d+	c #E48F92",
"e+	c #D1797E",
"f+	c #BB6A6F",
"g+	c #A06F73",
"h+	c #F6F6F6",
"i+	c #A9B1C1",
"j+	c #886E84",
"k+	c #8B6480",
"l+	c #895574",
"m+	c #9C6F89",
"n+	c #869246",
"o+	c #F8CFD0",
"p+	c #F7BDBE",
"q+	c #F5A0A3",
"r+	c #F1989B",
"s+	c #E78A8D",
"t+	c #E98186",
"u+	c #DF8487",
"v+	c #DA9B9D",
"w+	c #FCF6F6",
"x+	c #FEFFFF",
"y+	c #BECADB",
"z+	c #998A9F",
"A+	c #926A86",
"B+	c #9B5E81",
"C+	c #AA6C90",
"D+	c #828F40",
"E+	c #838F40",
"F+	c #818D40",
"G+	c #808D43",
"H+	c #C1C9D9",
"I+	c #C2CADA",
"J+	c #FEFBFB",
"K+	c #FBD9DA",
"L+	c #F49FA2",
"M+	c #F38E91",
"N+	c #F08488",
"O+	c #EE888C",
"P+	c #EDA5A7",
"Q+	c #F3DEE0",
"R+	c #FCFBFB",
"S+	c #BFCBDC",
"T+	c #C0CCDD",
"U+	c #B4B1C4",
"V+	c #B090AB",
"W+	c #AC6E91",
"X+	c #AA6C8D",
"Y+	c #859045",
"Z+	c #849243",
"`+	c #7E8A42",
" @	c #25281D",
".@	c #31351F",
"+@	c #23241E",
"@@	c #292B23",
"#@	c #3B4125",
"$@	c #2A2C26",
"%@	c #1B1927",
"&@	c #22232D",
"*@	c #BAC4D2",
"=@	c #FCFCFD",
"-@	c #FFFEFE",
";@	c #FBE3E4",
">@	c #F9D7D8",
",@	c #FCE9EA",
"'@	c #FEFCFC",
")@	c #BEC8D9",
"!@	c #BBB8CB",
"~@	c #859149",
"{@	c #272723",
"]@	c #353826",
"^@	c #E4E4E3",
"/@	c #ECECEC",
"(@	c #FBFBFB",
"_@	c #090518",
":@	c #21202D",
"<@	c #9DA7B4",
"[@	c #FFFDFD",
"}@	c #C1CADB",
"|@	c #85924D",
"1@	c #849145",
"2@	c #818E3F",
"3@	c #7C8743",
"4@	c #23251E",
"5@	c #1F1F1D",
"6@	c #26281F",
"7@	c #F3F3F4",
"8@	c #1A1926",
"9@	c #8E9EB6",
"0@	c #859252",
"a@	c #201F1F",
"b@	c #0D0918",
"c@	c #130E1B",
"d@	c #F6F7F6",
"e@	c #1C1A28",
"f@	c #1E1D2A",
"g@	c #C4CEDF",
"h@	c #8E9EB7",
"i@	c #849252",
"j@	c #808D3F",
"k@	c #2E321C",
"l@	c #0B0617",
"m@	c #232128",
"n@	c #F2F2F2",
"o@	c #F1F1F2",
"p@	c #272934",
"q@	c #9AA3B1",
"r@	c #96A5BC",
"s@	c #8B9BAD",
"t@	c #828E40",
"u@	c #74803A",
"v@	c #202318",
"w@	c #1E1D20",
"x@	c #ADADA6",
"y@	c #F3F3F3",
"z@	c #FAFAFB",
"A@	c #1E1D28",
"B@	c #21232D",
"C@	c #B8C2D2",
"D@	c #8C9CB5",
"E@	c #7B8642",
"F@	c #7C883E",
"G@	c #1F201B",
"H@	c #222419",
"I@	c #838E49",
"J@	c #A3AB82",
"K@	c #CACACA",
"L@	c #191824",
"M@	c #1A1B26",
"N@	c #9CA5B4",
"O@	c #95A4BB",
"P@	c #8C9CB4",
"Q@	c #7C893F",
"R@	c #859141",
"S@	c #879141",
"T@	c #899140",
"U@	c #838E40",
"V@	c #383023",
"W@	c #1A1519",
"X@	c #2D2E1B",
"Y@	c #C8C7C8",
"Z@	c #F4F4F4",
"`@	c #D3D2D2",
" #	c #120F1D",
".#	c #0E0719",
"+#	c #2D2932",
"@#	c #C8C1C2",
"##	c #C4CEDE",
"$#	c #8D9DB5",
"%#	c #889141",
"&#	c #8C9040",
"*#	c #F27726",
"=#	c #EC7327",
"-#	c #F27523",
";#	c #160B18",
">#	c #221D1B",
",#	c #838C45",
"'#	c #87924B",
")#	c #89944E",
"!#	c #CACACB",
"~#	c #CDCDCD",
"{#	c #4F4C4E",
"]#	c #181321",
"^#	c #191220",
"/#	c #3A1820",
"(#	c #B43D1C",
"_#	c #FEFDFD",
":#	c #8D9DB6",
"<#	c #849147",
"[#	c #869141",
"}#	c #8B9040",
"|#	c #F67623",
"1#	c #F47525",
"2#	c #F37523",
"3#	c #D26420",
"4#	c #24131A",
"5#	c #180E1A",
"6#	c #352826",
"7#	c #39342A",
"8#	c #3C2E32",
"9#	c #3B2F33",
"0#	c #45393B",
"a#	c #473D41",
"b#	c #483C40",
"c#	c #524445",
"d#	c #5D4D4E",
"e#	c #423B3F",
"f#	c #544445",
"g#	c #3E3035",
"h#	c #2D2429",
"i#	c #312229",
"j#	c #382229",
"k#	c #8F3D31",
"l#	c #B13C19",
"m#	c #B85340",
"n#	c #C3CDDD",
"o#	c #849146",
"p#	c #F47824",
"q#	c #F57624",
"r#	c #F27425",
"s#	c #F17424",
"t#	c #A9522A",
"u#	c #622E22",
"v#	c #5A2A21",
"w#	c #5A2B21",
"x#	c #542A21",
"y#	c #45241D",
"z#	c #472A1E",
"A#	c #653E26",
"B#	c #5C3722",
"C#	c #6A4027",
"D#	c #653926",
"E#	c #562C21",
"F#	c #653025",
"G#	c #713628",
"H#	c #723829",
"I#	c #68332A",
"J#	c #5B2A28",
"K#	c #983723",
"L#	c #B13A13",
"M#	c #B63F20",
"N#	c #B64228",
"O#	c #BFCADC",
"P#	c #97A5BC",
"Q#	c #95A5BC",
"R#	c #84914A",
"S#	c #F57823",
"T#	c #F47623",
"U#	c #F37524",
"V#	c #F57523",
"W#	c #EF7325",
"X#	c #D1642B",
"Y#	c #D06226",
"Z#	c #D0601E",
"`#	c #D1691B",
" $	c #D27A20",
".$	c #D58825",
"+$	c #D68E27",
"@$	c #D78F27",
"#$	c #D68925",
"$$	c #D57B20",
"%$	c #D3691A",
"&$	c #D26016",
"*$	c #D15E16",
"=$	c #CC5D1B",
"-$	c #BF5526",
";$	c #B14C2F",
">$	c #AC4127",
",$	c #B33709",
"'$	c #B74025",
")$	c #B94129",
"!$	c #84924E",
"~$	c #F67823",
"{$	c #F67622",
"]$	c #F57522",
"^$	c #F57623",
"/$	c #F47423",
"($	c #F37423",
"_$	c #F27C27",
":$	c #F3902D",
"<$	c #F59F31",
"[$	c #F3A434",
"}$	c #F0A334",
"|$	c #EC9C32",
"1$	c #E98C2E",
"2$	c #E77928",
"3$	c #E97025",
"4$	c #ED7124",
"5$	c #EA6F26",
"6$	c #DB642A",
"7$	c #C6542E",
"8$	c #B94528",
"9$	c #B53C1C",
"0$	c #B64227",
"a$	c #B84830",
"b$	c #98A7BD",
"c$	c #96A5BB",
"d$	c #F67624",
"e$	c #F77622",
"f$	c #F87722",
"g$	c #F97B23",
"h$	c #FC8C28",
"i$	c #FA972C",
"j$	c #EF982F",
"k$	c #DC9231",
"l$	c #CD8730",
"m$	c #C6782D",
"n$	c #C86829",
"o$	c #D56625",
"p$	c #E96E23",
"q$	c #F07223",
"r$	c #E46728",
"s$	c #CC562C",
"t$	c #B74327",
"u$	c #A4341B",
"v$	c #B4422A",
"w$	c #B64935",
"x$	c #98A7BE",
"y$	c #99A8BE",
"z$	c #8D9DAF",
"A$	c #8A9040",
"B$	c #F57824",
"C$	c #F77722",
"D$	c #F47424",
"E$	c #D9612A",
"F$	c #F27224",
"G$	c #F87621",
"H$	c #F87923",
"I$	c #FA8024",
"J$	c #F58227",
"K$	c #DF7B2A",
"L$	c #6C3D20",
"M$	c #23101B",
"N$	c #170718",
"O$	c #270F19",
"P$	c #AF5329",
"Q$	c #D96725",
"R$	c #ED7024",
"S$	c #E66A27",
"T$	c #AF4127",
"U$	c #4B131A",
"V$	c #2F1B24",
"W$	c #2E262E",
"X$	c #97A6BD",
"Y$	c #99A7BE",
"Z$	c #859253",
"`$	c #84924B",
" %	c #899040",
".%	c #D35B2B",
"+%	c #DD6329",
"@%	c #F87622",
"#%	c #F97722",
"$%	c #DC6A26",
"%%	c #632D1D",
"&%	c #210C1A",
"*%	c #130719",
"=%	c #130418",
"-%	c #AD5229",
";%	c #D86726",
">%	c #EC7024",
",%	c #EC6E26",
"'%	c #CB552D",
")%	c #AE3F25",
"!%	c #581617",
"~%	c #392024",
"{%	c #2F1F26",
"]%	c #889040",
"^%	c #F77723",
"/%	c #D35B2C",
"(%	c #D15A2D",
"_%	c #F67523",
":%	c #F57422",
"<%	c #E86D23",
"[%	c #D36326",
"}%	c #C35B27",
"|%	c #B55527",
"1%	c #C15C28",
"2%	c #D16426",
"3%	c #E66E24",
"4%	c #EF7124",
"5%	c #CB552C",
"6%	c #B03E1E",
"7%	c #AD3A1D",
"8%	c #B6442A",
"9%	c #BC6051",
"0%	c #86934B",
"a%	c #E36826",
"b%	c #D25A2C",
"c%	c #DF6529",
"d%	c #F47422",
"e%	c #EF7223",
"f%	c #EC7123",
"g%	c #EB7023",
"h%	c #F47522",
"i%	c #F17224",
"j%	c #EC6E25",
"k%	c #CB562D",
"l%	c #B03E23",
"m%	c #B7472D",
"n%	c #B84933",
"o%	c #BA5340",
"p%	c #F47723",
"q%	c #F57524",
"r%	c #D75F2A",
"s%	c #D65D2B",
"t%	c #F67522",
"u%	c #F37223",
"v%	c #F27222",
"w%	c #C85431",
"x%	c #BB4930",
"y%	c #BA4930",
"z%	c #BA4F3A",
"A%	c #FDFCFC",
"B%	c #998D3E",
"C%	c #EF7526",
"D%	c #E86C25",
"E%	c #D55D2B",
"F%	c #EF7024",
"G%	c #D95F25",
"H%	c #C35133",
"I%	c #C05139",
"J%	c #EEDFDE",
"K%	c #99A7BD",
"L%	c #E97628",
"M%	c #D7652A",
"N%	c #D15E2E",
"O%	c #D1622D",
"P%	c #F17626",
"Q%	c #C24E25",
"R%	c #B84529",
"S%	c #BE5433",
"T%	c #8A9048",
"U%	c #89944F",
"V%	c #97A6BC",
"W%	c #879040",
"X%	c #869041",
"Y%	c #889041",
"Z%	c #8D9040",
"`%	c #928F3F",
" &	c #859041",
".&	c #859142",
"+&	c #899554",
"@&	c #869354",
"#&	c #859249",
"$&	c #859143",
"%&	c #879349",
"&&	c #88944B",
"*&	c #879453",
"=&	c #85924A",
"-&	c #88944F",
";&	c #E8EAE2",
">&	c #6D8236",
",&	c #6D7A3B",
"'&	c #6A6F45",
")&	c #7D8557",
"!&	c #787858",
"~&	c #8F8E6D",
"{&	c #999876",
"]&	c #A19B84",
"^&	c #9A9977",
". + @ # $ % & * = - - - - - - - - - - - - - - - - - - - - - - - - - - - - - - - - - - - - - - - - - - - - - - = * & % $ # + + ; ",
"@ @ @ > , ' ) * ! - - - - - - - - - - - - - - - - - - - - - - - - - - - - - - - - - - - - - - - - - - - - - - ! * ) ' , > + @ ~ ",
"{ # > ] ^ / ( _ : - - - - - - - - - - - - - - - - - - - - - - - - - - - - - - - - - - - - - - - - - - - - - - : _ ( / ^ ] > # < ",
"[ $ , } | 1 2 : 3 - - - - - - - - - - - - - - - - - - - - - - - - - - - - - - - - - - - - - - - - - - - - - - 3 : 2 1 | } 4 $ 5 ",
"6 7 8 9 0 a b - - - - - - - - - - - - - - - - - - - - - - - - - - - - - - - - - - - - - - - - - - - - - - - - - - b a 0 9 c 7 d ",
"e f g h i b j - - - - - - - - - - - - - - - - - - - - - - - - - - - - - - - - - - - - - - - - - - - - - - - - - - j b i h k f l ",
"* m n a b - - - - - - - - - - - - - - - - - - - - - - - - - - - - - - - - - - - - - - - - - - - - - - - - - - - - - - b a o m p ",
"= q r b s - - - - - - - - - - - - - - - - - - - - - - - - - - - - - - - - - - - - - - - - - - - - - - - - - - - - - - s b r q y ",
"- - - - - - - - - - - - - - - - - - - - - - - - - t t t t t - - - - - u u t v v w w x x v - - - - - - - - - - - - - - - - - - - ",
"- - - - - - - - - - - - - - - - - - - - - - - - - t u z A A u t A u u B u C D w E F w w w - - - - - - - - - - - - - - - - - - G ",
"- - - - - - - - - - - - - - - - - - - - - - - - u B H I J J J J J J J J K L M N O P F w v - - - - - - - - - - - - - - - - Q - G ",
"- - - - - - - - - - - - - - - - - - - - - - t u z I J J J J J J J J J J J I I R S O O T U - v - - - - - - - - - - - - - - - - V ",
"- - - - - - - - - - - - - - - - - - - - - - t J J J J J J J J J J J J J J J I W R S P X Y U w - - - - - - - - - - - - - - - - Z ",
"- - - - - - - - - - - - - - - - - - - - t u ` J J J J J J J J J J J J J J J J I W R P O O P  .v v v - - - - - - - - - - - - - ..",
"- - - - - - - - - - - - - - - - - - - t - u +.J J J J J J J J J J J J J J J J J I @.O  . .P  .O w #.- - - - - - - - - - - - - ..",
"- - - - - - - - - - - - - - - - - - - t u B J J J J J J J J J J J J J J J J J J I @.O  .O O P O P v - - - - - - - - - - - - - $.",
"- - - - - - - - - - - - - - - - t - - A %.J J J J J J J J J J J J J J J J J J J I R O  .O O O O  .E x v - - - - - - - - - &.- *.",
"- - - - - - - - - - - - - - - - - - u =.J J J J J J J J J J J J J J J J J J J J J @.O  .O O O O S N x v v - - - - - - - - &.- -.",
"- - - - - - - - - - - - - - - - - - u J J J J J J J J J J J J J J J J J J J J J J S O  .O O O O O O w v v - - - - - - - - &.- -.",
"- - - - - - - - - - - - - - - - - - z J J J J J J J J J J J J J J J I J J J J J J S S O O O  .O O O  .;.- - - - - - - - - &.- *.",
"- - - - - - - - - - - - - - - - - t J J J J J J J J J J J J L L >.I L I J J J J K ,.O O O O  .X '. . .).- - - - - - - - - - - !.",
"- - - - - - - - - - - - - - - - - u J J J J J J J J J J J J ~.{.].^./.I J J J J J S O O O (._.:.<.[. .- - - - - - - - - - - - ..",
"- - - - - - - - - - - - - - - - - u J J J J J J J J J J J >.}.|.1.2.3.4.I J J J J S O O '.5.6.7.1.8. .v - - - - - - - - - - - ..",
"- - - - - - - - - - - - - - - - - A J J J J J J J J I I 9.0.a.b.c.d.e.f.g.h.J J J N O O i.j.k.l.m.n.o.- p.- - - - - - - - - - !.",
"- - - - - - - - - - - - - - - - - A J J J J J J J J I L q.r.s.t.u.v.w.x.y.>.J J J N O z.A.B.C.D.E.F.G.H.p.- - - - - - - - &.- *.",
"- - - - - - - - - - - - - - - - - A J J J J J J J J I >.I.J.K.L.M.N.O.P.J.I J J J Q.O  .R.v.w.S.T.U.V.H.- - - - - - - - - &.- -.",
"- - - - - - - - - - - - - - - - - u J J J J J J J J I I W.X.Y.Z.`. +.+++@+#+J J J O O X $+%+&+*+=+-+;+H.p.- - - - - - - - &.- -.",
"- - - - - - - - - - - - - - - - - A J J J J J J J J I I >+4.,+'+)+!+~+{+>.I J J J N O ]+^+/+(+Z._+:+'.H.- - - - - - - - - &.- *.",
"- - - - - - - - - - - - - - - - - t J J J J J J J J J <+[+}+|+1+2+!+3+L J J J J I ,.O  .'. .4+5+6+7+8+H.- - - - - - - - - - - !.",
"- - - - - - - - - - - - - - - - - 9+>.J J J J J J J 0+a+b+c+d+e+f+g+h+J J J J J I S O O  .'.i+j+k+l+m+- - - - - - - - - - - - ..",
"- - - - - - - - - - - - - - - - - n+I K J I I J J J o+p+q+r+s+t+u+v+w+x+J J J J I @.O O  .^+y+z+A+B+C+).- - - - - - - - - - - ..",
"- - - - - - - - - - - t ).D+E+F+H.G+H+I+>.J x+x+J J J+K+L+M+N+O+P+Q+R+I I J J J J @.O  . .S+T+U+V+W+X+Y+).Z+- - - - - - - - - $.",
"- - - - - - - - - - - `+ @.@+@@@#@$@%@&@*@=@I J J J I -@J+;@>@,@'@-@-@J J J J J J R O  . .S Q.z.S+)@!@~@;.).).- - - - - - &.- *.",
"- - - - - - - - - - E+{@]@^@/@I I >.(@_@:@<@L I I J I -@J J [@'@J -@J J J J J J J R O  .O T+S }@O O  .|@1@- - - - - - - - &.- -.",
"- - - - - - p.2@3@4@5@6@>.J I J J J I 7@8@_.O #+I I K J J J -@J J J J J J J J J J R O  .O O O O O z. .9@0@;.- ).- - - - - &.- -.",
"- - - - - - - 2@a@b@c@d@I I J J J J J I >.e@f@g@>.I W J J J J J J J J J J J J J J ,.O  .O O O O O O O h@9@i@- - - - - - - &.- *.",
"- - - - - H.j@k@l@m@n@I I I J J J J J J J o@p@q@I I I J J J J J J J J J J J J J J S O  .O O O O O O O r@h@s@1@).).).- - - - - $.",
"- - - H.t@t@u@v@w@x@y@I J J J J J J J J J z@A@B@C@W J J J J J J J J J J J J J J I @.O  .O O O O O O  .r@r@h@D@;.- - - - - - - E@",
"- - - H.p.F@G@H@I@J@K@J J J J J J J J J J h.L@M@N@=@x+J J J J J J J J J J J J J J @.O  .O O O O O O  .r@r@O@P@1@- ).- - - - - Q@",
"R@S@T@R@U@V@W@X@v A Y@Z@J I I J J J J J I `@ #.#+#@#>.J -@J J J J J J J J J J J J ##O  .O O O O O O  .r@r@r@$#1@- v - - - - - : ",
"R@%#&#*#=#-#;#>#,#'#)#!#I I >.I J I I I ~#{#]#^#/#(#_#_#I J J J J J J J J J J J x+##O  .O O O O O O '.r@r@O@:#1@- <#- - - - - 3 ",
"R@[#}#|#1#2#3#4#5#6#7#8#9#0#a#b#c#d#e#f#g#h#i#j#k#l#m#I -@J J J J J J J J J J J K n#O  .O O O O O O O r@r@O@:#o#- ;.- - - - - - ",
"[#}#p#q#2#r#s#t#u#v#w#x#y#z#A#B#C#D#E#F#G#H#I#J#K#L#M#N#_#J J J J J J J J J J J K ,.O O#O O O O O O S+P#Q#D@$#R#).).- - - - - - ",
"[#%#S#|#T#U#V#W#X#Y#Z#`# $.$+$@$#$$$%$&$*$=$-$;$>$,$'$)$L J J J J J J J J J J J I S O O#O O O O O O  .r@h@P@!$v - ).- - - - - - ",
"R@R@~${$]$|#|#^$/$($($_$:$<$[$}$|$1$2$3$4$5$6$7$8$9$0$a$I J J J J J J J J J J J I ,. .b$ .O O O O O  .c$9@<#v ).- - - - - - - - ",
"R@%#S#d$e$/$/$V#f$f$f$g$h$i$j$k$l$m$n$o$p$q$r$s$t$u$v$w$J J J J J J J J J J J J x+O O x$y$^+O O O O O h@z$R#1@- - - - - - - - - ",
"R@A$B$C$D$E$F$D$f$G$f$H$I$J$K$L$M$N$O$P$Q$R$S$s$T$U$V$W$J J J J J J J J J J J J J O S+X$x$Y$'. .O O X Z$`$;.).- - - - - - - - - ",
"R@ %~$f$e$.%+%V#C$f$@%e$#%2#$%%%&%*%=%-%;%>%,%'%)%!%~%{%J J J J J J J J J J J J J O  .X$r@Y$ . .O  .w w ).- - - - - - - - - - - ",
"- ]%^%f$C$/%(%_%f$f$f$e$@%:%<%[%}%|%1%2%3%4%,%5%6%7%8%9%J J J J J J J J J J J J J O  .X$r@y$'. .O O 0%w - - - - - - - - - - - - ",
"R@%#B$]$V#a%b%c%e$e$e$e$e$e$d%e%f%g%f%e%h%i%j%k%l%m%n%o%J J J J J J J J J J J J J O  .X$r@b$'. .O  .0%v - - - - - - - - - - - - ",
"R@R@A$p%q%|#r%s%/$q%t%{$e$e$e$f$f$#%f$#%f$u%v%w%x%y%z%A%J J J J J J J J J J J J J O  .X$r@X$'. .F #.w - - - - - - - - - - - - - ",
"R@S@R@}#B%C%D%r%E%F%q%e$f$e$e$@%f$f$f$f$f$V#G%H%I%J%>.>.J J J J J J J J J J J J J O  .X$r@K%'.'.v - - v - - - - - - - - - - - - ",
"- - R@R@[#}#L%M%N%O%P%^%~$^%^%^%^%^%^%~$~$Q%R%S%T%U%L I J J J J J J J J J J J J J O O V%c$V%'.^+v - - - - - - - - - - - - - - - ",
"- - - R@[#R@}#W%X%X%Y%}#A$Z%&#`%`%`%A$}#[# & & &.&).+&h.I J J J J J J J J J J J K O O b$r@@&x #&w - - - - - - - - - - - - - - - ",
"- - - R@R@R@R@- - - R@R@R@%#S@S@%#[#%#%#R@- - - .&$&w %&&&J J J J J J J J J J J I N Y *&=&v - v - v - - - - - - - - - - - - - - ",
"- - - - - - - - - - - - - - - - - - - - - - - - - - u u u I J J J J J J J J J J I -&x E v - - - - - - - - - - - - - - - - - - - ",
"= q r b s - - - - - - - - - - - - - - - - - - - - - u t t t B J J J J J J J J J J A - x t - - - - - - - - - - - - - - s b r q : ",
"* m n a b - - - - - - - - - - - - - - - - - - - - - t - - t t =.t I J J J J ;&A B t v - - - - - - - - - - - - - - - - b a n m _ ",
"e f g h i b j - - - - - - - - - - - - - - - - - - - - - - - - t t u u ` B H A t t t - - - - - - - - - - - - - - - j b i h >&f ,&",
"6 7 8 9 0 a b - - - - - - - - - - - - - - - - - - - - - - t t t - - t t t t - t t t - - - - - - - - - - - - - - - b a 0 9 8 7 '&",
"[ $ , } | 1 2 : 3 - - - - - - - - - - - - - - - - - - - - - - - - - - - - - - - - - - - - - - - - - - - - - - 3 : 2 1 | } )&$ !&",
"{ # > ] ^ / ( _ : - - - - - - - - - - - - - - - - - - - - - - - - - - - - - - - - - - - - - - - - - - - - - - : _ ( / ^ ] > # ~&",
"@ @ @ > , ' ) * ! - - - - - - - - - - - - - - - - - - - - - - - - - - - - - - - - - - - - - - - - - - - - - - ! * ) ' , > @ @ {&"
". + @ # $ % & * = - - - - - - - - - - - - - - - - - - - - - - - - - - - - - - - - - - - - - - - - - - - - - - = * & % $ # ]&+ ^&"};
