/* XPM */
static char * wall_xpm[] = {
"64 64 88 1",
" 	c None",
".	c #A19C83",
"+	c #A19C84",
"@	c #A09B83",
"#	c #938F78",
"$	c #77765C",
"%	c #636B42",
"&	c #647436",
"*	c #6F8036",
"=	c #7D8C3D",
"-	c #849141",
";	c #918C77",
">	c #959476",
",	c #7D8656",
"'	c #6B7C3A",
")	c #677A33",
"!	c #7D8B3D",
"~	c #8F8A75",
"{	c #928D78",
"]	c #8E9369",
"^	c #7C8C4D",
"/	c #718636",
"(	c #6F8235",
"_	c #758539",
":	c #7F8D3E",
"<	c #88826F",
"[	c #736D5E",
"}	c #7D8C4D",
"|	c #768A3F",
"1	c #758938",
"2	c #7A8B3B",
"3	c #829040",
"4	c #7C8656",
"5	c #7B7665",
"6	c #5E6046",
"7	c #646C42",
"8	c #6D7F3B",
"9	c #738838",
"0	c #768A39",
"a	c #7B8C3C",
"b	c #818F3F",
"c	c #6C7E3A",
"d	c #75745C",
"e	c #637138",
"f	c #667737",
"g	c #6E8236",
"h	c #758A38",
"i	c #7C8D3C",
"j	c #839141",
"k	c #6D8235",
"l	c #787F55",
"m	c #718337",
"n	c #758839",
"o	c #758838",
"p	c #78844E",
"q	c #7E8C3D",
"r	c #7F8E3E",
"s	c #839140",
"t	c #826252",
"u	c #778448",
"v	c #768444",
"w	c #9F7E6D",
"x	c #859241",
"y	c #778444",
"z	c #C18A6C",
"A	c #7A8444",
"B	c #7B8444",
"C	c #E9C8B6",
"D	c #E9C0A9",
"E	c #80884A",
"F	c #F3D7C8",
"G	c #DEA789",
"H	c #849140",
"I	c #889054",
"J	c #8C9458",
"K	c #FAEAE2",
"L	c #80894A",
"M	c #7B8642",
"N	c #7C893F",
"O	c #6D8236",
"P	c #6D7A3B",
"Q	c #6A6F45",
"R	c #7D8557",
"S	c #787858",
"T	c #8F8E6D",
"U	c #999876",
"V	c #A19B84",
"W	c #9A9977",
"----------------------------------------------------------------",
".+@#$%&*=----------------------------------------------=*&%$#++;",
"@@@>,')*!----------------------------------------------!*)',>+@~",
"{#>]^/(_:----------------------------------------------:_(/^]>#<",
"[$,}|12:3----------------------------------------------3:21|}4$5",
"67890ab--------------------------------------------------ba09c7d",
"efghibj--------------------------------------------------jbihkfl",
"*mnab------------------------------------------------------baomp",
"=qrbs---------------------------tttt-----------------------sbrqu",
"--------------------------------tttt---------------------------v",
"------------------------------ttwwtt-------------------------x-v",
"------------------------------ttwwtt---------------------------y",
"----------------------zzzzzzttwwwwttzzzzzz---------------------A",
"----------------------zzzzzzttwwwwttzzzzzz---------------------B",
"----------------zzzzzzCCCCCCttwwwwttDDDDDDzzzzzz---------------B",
"----------------zzzzzzCCCCCCttwwwwttDDDDDDzzzzzz---------------E",
"------------zzzzDDFFFFGGGGGGttwwwwttGGGGGGDDDDDDzzzz---------H-I",
"------------zzzzDDFFFFGGGGGGttwwwwttGGGGGGDDDDDDzzzz---------H-J",
"----------zzDDFFFFKKGGFFFFFFttwwwwttFFFFFFGGFFFFFFDDzz-------H-J",
"----------zzDDFFFFKKGGFFFFFFttwwwwttFFFFFFGGFFFFFFDDzz-------H-I",
"--------zzDDFFFFKKGGFFFFKKFFGGttttGGFFKKFFFFGGKKFFFFDDzz-------L",
"--------zzDDFFFFKKGGFFFFKKFFGGttttGGFFKKFFFFGGKKFFFFDDzz-------B",
"------zzDDFFFFKKGGFFFFKKKKGGFFFFFFFFGGFFKKFFFFGGKKFFFFDDzz-----B",
"------zzDDFFFFKKGGFFFFKKKKGGFFFFFFFFGGFFKKFFFFGGKKFFFFDDzz-----L",
"------zzDDFFKKGGFFFFKKKKFFGGFFKKKKFFGGFFFFKKKKFFGGKKFFFFzz---H-I",
"------zzDDFFKKGGFFFFKKKKFFGGFFKKKKFFGGFFFFKKKKFFGGKKFFFFzz---H-J",
"----zzDDDDFFKKGGFFKKKKFFGGFFFFFFKKKKFFGGFFFFKKFFGGKKFFFFDDzz-H-J",
"----zzDDDDFFKKGGFFKKKKFFGGFFFFFFKKKKFFGGFFFFKKFFGGKKFFFFDDzz-H-I",
"----zzDDFFKKGGFFFFKKFFFFGGFFFFFFKKKKFFGGFFFFKKKKFFGGKKFFDDzz---L",
"----zzDDFFKKGGFFFFKKFFFFGGFFFFFFKKKKFFGGFFFFKKKKFFGGKKFFDDzz---B",
"----zzDDFFKKGGFFKKFFFFGGFFFFFFFFFFKKKKFFGGFFFFKKFFGGKKFFDDzz---B",
"----zzDDFFKKGGFFKKFFFFGGFFFFFFFFFFKKKKFFGGFFFFKKFFGGKKFFDDzz---E",
"----zzDDFFGGFFFFKKFFFFGGFFFFFFFFFFKKKKFFGGFFFFFFFFFFGGFFDDzz-H-I",
"----zzDDFFGGFFFFKKFFFFGGFFFFFFFFFFKKKKFFGGFFFFFFFFFFGGFFDDzz-H-J",
"----zzDDFFGGFFFFFFFFFFGGFFKKFFFFFFFFKKFFGGFFFFFFFFFFGGFFDDzz-H-J",
"----zzDDFFGGFFFFFFFFFFGGFFKKFFFFFFFFKKFFGGFFFFFFFFFFGGFFDDzz-H-I",
"----zzDDFFGGFFFFKKFFGGFFKKKKFFFFFFFFKKKKFFGGFFFFFFFFGGFFDDzz---E",
"----zzDDFFGGFFFFKKFFGGFFKKKKFFFFFFFFKKKKFFGGFFFFFFFFGGFFDDzz---M",
"----zzDDFFGGFFFFFFFFGGFFKKKKFFFFFFFFFFKKFFGGFFFFKKFFGGFFDDzz---N",
"----zzDDFFGGFFFFFFFFGGFFKKKKFFFFFFFFFFKKFFGGFFFFKKFFGGFFDDzz---:",
"----zzDDDDGGDDFFFFFFGGFFKKKKFFFFFFFFFFKKFFGGFFFFFFFFGGDDDDzz---3",
"----zzDDDDGGDDFFFFFFGGFFKKKKFFFFFFFFFFKKFFGGFFFFFFFFGGDDDDzz----",
"------zzDDGGDDFFFFFFGGFFFFKKKKFFFFFFFFFFFFGGFFFFFFFFGGDDzz------",
"------zzDDGGDDFFFFFFGGFFFFKKKKFFFFFFFFFFFFGGFFFFFFFFGGDDzz------",
"------zzDDDDGGDDFFFFDDGGFFKKKKFFFFFFFFFFGGDDFFFFDDGGDDDDzz------",
"------zzDDDDGGDDFFFFDDGGFFKKKKFFFFFFFFFFGGDDFFFFDDGGDDDDzz------",
"--------zzDDGGDDDDFFFFGGFFFFKKKKFFFFFFFFGGDDFFDDDDGGDDzz--------",
"--------zzDDGGDDDDFFFFGGFFFFKKKKFFFFFFFFGGDDFFDDDDGGDDzz--------",
"----------zzDDGGDDDDDDDDGGFFFFFFFFFFFFGGDDDDDDDDGGDDzz----------",
"----------zzDDGGDDDDDDDDGGFFFFFFFFFFFFGGDDDDDDDDGGDDzz----------",
"------------zzzzDDDDDDDDGGDDDDFFFFFFDDGGDDDDDDDDzzzz------------",
"------------zzzzDDDDDDDDGGDDDDFFFFFFDDGGDDDDDDDDzzzz------------",
"----------------zzzzzzDDDDGGDDDDDDDDGGDDDDzzzzzz----------------",
"----------------zzzzzzDDDDGGDDDDDDDDGGDDDDzzzzzz----------------",
"----------------------zzzzzzzzzzzzzzzzzzzz----------------------",
"=qrbs-----------------zzzzzzzzzzzzzzzzzzzz-----------------sbrq:",
"*mnab------------------------------------------------------banm_",
"efghibj--------------------------------------------------jbihOfP",
"67890ab--------------------------------------------------ba0987Q",
"[$,}|12:3----------------------------------------------3:21|}R$S",
"{#>]^/(_:----------------------------------------------:_(/^]>#T",
"@@@>,')*!----------------------------------------------!*)',>@@U",
".+@#$%&*=----------------------------------------------=*&%$#V+W",
"----------------------------------------------------------------"};
